<?xml version="1.0" encoding="UTF-8" standalone="no"?>
<!DOCTYPE svg PUBLIC "-//W3C//DTD SVG 1.1//EN" "http://www.w3.org/Graphics/SVG/1.1/DTD/svg11.dtd">
<svg version="1.1" xmlns="http://www.w3.org/2000/svg" xmlns:xlink="http://www.w3.org/1999/xlink" preserveAspectRatio="xMidYMid meet" viewBox="0 0 640 640" width="15" height="15"><defs><path d="M51.35 576.02L0 0L564.29 0L512.88 575.93L281.8 640L51.35 576.02Z" id="c3ISlnkz7y"></path><path d="M512.8 47.1L282.15 47.1L282.15 591.03L468.87 539.26L512.8 47.1Z" id="dLTBm8XFz"></path><path d="M124.06 331.38L282.15 331.38L282.15 260.74L117.73 260.74L124.06 331.38Z" id="c1WnYPFSV"></path><path d="M111.43 188.39L282.15 188.39L282.15 117.75L281.9 117.75L105.01 117.75L111.43 188.39Z" id="b17HKUKuPM"></path><path d="M281.84 444.3L203.16 423.05L198.13 366.71L159.9 366.71L127.22 366.71L137.11 477.63L281.82 517.81L282.15 517.72L282.15 444.21L281.84 444.3Z" id="fmlkjPit0"></path><path d="M458.86 117.75L281.9 117.75L281.9 188.39L381.44 188.39L375.02 260.74L281.9 260.74L281.9 331.38L368.89 331.38L360.69 423.01L281.9 444.27L281.9 517.77L426.72 477.63L427.79 465.7L444.39 279.71L446.11 260.74L458.86 117.75Z" id="a5fusVNWS"></path></defs><g><g><g><use xlink:href="#c3ISlnkz7y" opacity="1" fill="#264de4" fill-opacity="1"></use><g><use xlink:href="#c3ISlnkz7y" opacity="1" fill-opacity="0" stroke="#000000" stroke-width="1" stroke-opacity="0"></use></g></g><g><use xlink:href="#dLTBm8XFz" opacity="1" fill="#2965f1" fill-opacity="1"></use><g><use xlink:href="#dLTBm8XFz" opacity="1" fill-opacity="0" stroke="#000000" stroke-width="1" stroke-opacity="0"></use></g></g><g><use xlink:href="#c1WnYPFSV" opacity="1" fill="#ebebeb" fill-opacity="1"></use><g><use xlink:href="#c1WnYPFSV" opacity="1" fill-opacity="0" stroke="#000000" stroke-width="1" stroke-opacity="0"></use></g></g><g><use xlink:href="#b17HKUKuPM" opacity="1" fill="#ebebeb" fill-opacity="1"></use><g><use xlink:href="#b17HKUKuPM" opacity="1" fill-opacity="0" stroke="#000000" stroke-width="1" stroke-opacity="0"></use></g></g><g><use xlink:href="#fmlkjPit0" opacity="1" fill="#ebebeb" fill-opacity="1"></use><g><use xlink:href="#fmlkjPit0" opacity="1" fill-opacity="0" stroke="#000000" stroke-width="1" stroke-opacity="0"></use></g></g><g><use xlink:href="#a5fusVNWS" opacity="1" fill="#ffffff" fill-opacity="1"></use><g><use xlink:href="#a5fusVNWS" opacity="1" fill-opacity="0" stroke="#000000" stroke-width="1" stroke-opacity="0"></use></g></g></g></g></svg>